<svg width="13" height="13" viewBox="0 0 13 13" fill="none" xmlns="http://www.w3.org/2000/svg">
<path fill-rule="evenodd" clip-rule="evenodd" d="M5.78243 1.30408e-08C4.86029 7.85711e-05 3.95153 0.220671 3.13199 0.643373C2.31244 1.06607 1.60586 1.67863 1.07121 2.42993C0.536557 3.18123 0.189331 4.04949 0.0584995 4.96227C-0.0723317 5.87505 0.0170265 6.80588 0.319119 7.6771C0.621211 8.54833 1.12728 9.33468 1.7951 9.97055C2.46292 10.6064 3.27312 11.0734 4.15812 11.3325C5.04312 11.5915 5.97724 11.6352 6.88256 11.4599C7.78788 11.2846 8.63814 10.8953 9.3624 10.3245L11.847 12.809C11.9753 12.933 12.1472 13.0015 12.3256 13C12.504 12.9984 12.6746 12.9269 12.8007 12.8007C12.9269 12.6746 12.9984 12.504 13 12.3256C13.0015 12.1472 12.933 11.9754 12.809 11.8471L10.3244 9.36254C10.9966 8.50984 11.4151 7.48513 11.5321 6.40569C11.6491 5.32624 11.4598 4.23567 10.9859 3.25879C10.5119 2.2819 9.77257 1.45816 8.85235 0.881849C7.93212 0.305535 6.86823 -7.28916e-05 5.78243 1.30408e-08ZM1.3602 5.7827C1.3602 4.6099 1.82611 3.48513 2.65544 2.65583C3.48477 1.82653 4.60958 1.36064 5.78243 1.36064C6.95528 1.36064 8.08009 1.82653 8.90942 2.65583C9.73875 3.48513 10.2047 4.6099 10.2047 5.7827C10.2047 6.95551 9.73875 8.08028 8.90942 8.90958C8.08009 9.73888 6.95528 10.2048 5.78243 10.2048C4.60958 10.2048 3.48477 9.73888 2.65544 8.90958C1.82611 8.08028 1.3602 6.95551 1.3602 5.7827Z" fill="white"/>
</svg>
