<svg width="22" height="14" viewBox="0 0 22 14" fill="none" xmlns="http://www.w3.org/2000/svg">
<path fill-rule="evenodd" clip-rule="evenodd" d="M0 12.4167C0 11.8184 0.447715 11.3333 1 11.3333H21C21.5523 11.3333 22 11.8184 22 12.4167C22 13.015 21.5523 13.5 21 13.5H1C0.447715 13.5 0 13.015 0 12.4167Z" fill="white"/>
<path fill-rule="evenodd" clip-rule="evenodd" d="M0 7.00001C0 6.4017 0.447715 5.91667 1 5.91667H21C21.5523 5.91667 22 6.4017 22 7.00001C22 7.59831 21.5523 8.08334 21 8.08334H1C0.447715 8.08334 0 7.59831 0 7.00001Z" fill="white"/>
<path fill-rule="evenodd" clip-rule="evenodd" d="M0 1.58333C0 0.985025 0.447715 0.5 1 0.5H21C21.5523 0.5 22 0.985025 22 1.58333C22 2.18164 21.5523 2.66667 21 2.66667H1C0.447715 2.66667 0 2.18164 0 1.58333Z" fill="white"/>
</svg>
