<svg width="13" height="14" viewBox="0 0 13 14" fill="none" xmlns="http://www.w3.org/2000/svg">
<path fill-rule="evenodd" clip-rule="evenodd" d="M5.78243 0.5C4.86029 0.500079 3.95153 0.720671 3.13199 1.14337C2.31244 1.56607 1.60586 2.17863 1.07121 2.92993C0.536557 3.68123 0.189331 4.54949 0.0584995 5.46227C-0.0723316 6.37505 0.0170265 7.30588 0.319119 8.1771C0.621211 9.04833 1.12728 9.83468 1.7951 10.4706C2.46292 11.1064 3.27312 11.5734 4.15812 11.8325C5.04312 12.0915 5.97724 12.1352 6.88256 11.9599C7.78788 11.7846 8.63814 11.3953 9.3624 10.8245L11.847 13.309C11.9753 13.433 12.1472 13.5015 12.3256 13.5C12.504 13.4984 12.6746 13.4269 12.8007 13.3007C12.9269 13.1746 12.9984 13.004 13 12.8256C13.0015 12.6472 12.9329 12.4754 12.809 12.3471L10.3244 9.86254C10.9966 9.00984 11.4151 7.98513 11.5321 6.90569C11.6491 5.82624 11.4598 4.73567 10.9859 3.75879C10.5119 2.7819 9.77257 1.95816 8.85235 1.38185C7.93212 0.805535 6.86823 0.499927 5.78243 0.5ZM1.3602 6.2827C1.3602 5.1099 1.82611 3.98513 2.65544 3.15583C3.48477 2.32653 4.60958 1.86064 5.78243 1.86064C6.95528 1.86064 8.08009 2.32653 8.90942 3.15583C9.73875 3.98513 10.2047 5.1099 10.2047 6.2827C10.2047 7.45551 9.73875 8.58028 8.90942 9.40958C8.08009 10.2389 6.95528 10.7048 5.78243 10.7048C4.60958 10.7048 3.48477 10.2389 2.65544 9.40958C1.82611 8.58028 1.3602 7.45551 1.3602 6.2827Z" fill="#242424"/>
</svg>
